<?xml version="1.0" encoding="UTF-8"?><svg id="a" xmlns="http://www.w3.org/2000/svg" viewBox="0 0 50 50"><defs><style>.b{fill:#fff;}</style></defs><path class="b" d="M16.8,21.98c-1.66,0-3.01,1.35-3.01,3.02s1.35,3.01,3.01,3.01,3.01-1.35,3.01-3.01-1.35-3.02-3.01-3.02Z"/><path class="b" d="M25,5.51C14.23,5.51,5.51,14.23,5.51,25s8.73,19.49,19.49,19.49,19.49-8.73,19.49-19.49S35.77,5.51,25,5.51Zm13.56,20.29h-1.88v2.54c0,.7-.57,1.27-1.27,1.27h-4.02c-.7,0-1.27-.57-1.27-1.27v-2.54h-8.8c-.38,2.16-2.26,3.81-4.52,3.81-2.54,0-4.6-2.06-4.6-4.6s2.06-4.6,4.6-4.6c2.27,0,4.14,1.65,4.52,3.81h17.24c.43,0,.78,.35,.78,.79s-.35,.79-.78,.79Z"/></svg>