<?xml version="1.0" encoding="UTF-8"?><svg id="a" xmlns="http://www.w3.org/2000/svg" viewBox="0 0 50 50"><defs><style>.b{fill:#fff;}</style></defs><path class="b" d="M25,16.1c-2.99,0-5.42,2.43-5.42,5.42,0,.21,.01,.41,.04,.61h10.76c.02-.2,.04-.41,.04-.61,0-2.99-2.43-5.42-5.42-5.42Z"/><path class="b" d="M25,5.51C14.23,5.51,5.51,14.23,5.51,25s8.73,19.49,19.49,19.49,19.49-8.73,19.49-19.49S35.77,5.51,25,5.51Zm2.41,28.94l-1.13,1.13c-.1,.1-.29,.17-.42,.17h-1.48c-.14,0-.33-.08-.42-.17l-1.13-1.13c-.1-.1-.06-.17,.07-.17h4.44c.14,0,.17,.08,.07,.17Zm.67-1.08h-5.92c-.41,0-.74-.33-.74-.74s.33-.74,.74-.74h5.92c.41,0,.74,.33,.74,.74s-.33,.74-.74,.74Zm0-2.36h-5.92c-.41,0-.74-.33-.74-.74s.33-.74,.74-.74h5.92c.41,0,.74,.33,.74,.74s-.33,.74-.74,.74Zm-3.08-2.27c-3.99,0-7.22-3.23-7.22-7.22s3.23-7.22,7.22-7.22,7.22,3.23,7.22,7.22-3.23,7.22-7.22,7.22Z"/></svg>