<?xml version="1.0" encoding="UTF-8"?><svg id="a" xmlns="http://www.w3.org/2000/svg" viewBox="0 0 50 50"><defs><style>.b{fill:#fff;}</style></defs><path class="b" d="M25,5.51C14.23,5.51,5.51,14.23,5.51,25s8.73,19.49,19.49,19.49,19.49-8.73,19.49-19.49S35.77,5.51,25,5.51Zm9.48,24.64c-1.83,0-3.31-1.49-3.31-3.31,0-.69,.21-1.32,.57-1.85-.01,0-.02-.01-.03-.02l-4.06-4.06c-.45,.42-1,.72-1.62,.84h0v6.54c1.52,.3,2.67,1.64,2.67,3.25,0,1.83-1.49,3.31-3.31,3.31s-3.31-1.49-3.31-3.31c0-1.65,1.22-3.02,2.81-3.26v-6.51c-.64-.1-1.22-.38-1.68-.79l-4,4-.3-.3c.52,.58,.84,1.34,.84,2.18,0,1.83-1.49,3.31-3.31,3.31s-3.31-1.49-3.31-3.31,1.49-3.31,3.31-3.31c.84,0,1.6,.32,2.18,.84l-.21-.21,4.09-4.09c-.26-.47-.41-1-.41-1.57,0-1.83,1.49-3.31,3.31-3.31s3.31,1.49,3.31,3.31c0,.53-.14,1.03-.36,1.48l4.18,4.18s0,.02,.02,.02c.55-.41,1.22-.65,1.95-.65,1.83,0,3.31,1.49,3.31,3.31s-1.49,3.31-3.31,3.31Z"/><path class="b" d="M25.38,16.31c-1.2,0-2.17,.97-2.17,2.17s.97,2.17,2.17,2.17,2.17-.97,2.17-2.17-.97-2.17-2.17-2.17Z"/></svg>