<?xml version="1.0" encoding="UTF-8"?>
<svg id="logo-full" xmlns="http://www.w3.org/2000/svg" viewBox="0 0 264 22">
  <defs>
    <clipPath id="b">
      <path style="fill:none" d="M.62.55h262.76V22.3H.62z"/>
    </clipPath>
    <style>
      .d{fill:#235b40}
    </style>
  </defs>
  <g style="clip-path:url(#b)">
    <path class="d" d="M9.04 11.63H7.81v7.04l-6.15-7.04H.62v9.09h1.22v-7l6.08 7h1.12v-9.09Zm7.49 0h-5.16v9.09h5.28v-1.17h-3.97v-2.83h3.72v-1.17h-3.72V12.8h3.85v-1.17Zm14.71 0h-1.29l-2.48 6.27-2.53-6.27H23.7l-2.52 6.27-2.51-6.27h-1.31l3.68 9.17h.25l3.01-7.44 2.99 7.44h.25l3.69-9.17Zm5.67.52c-.64-.43-1.33-.64-2.03-.64-1.67 0-2.76.95-2.76 2.43 0 2.49 3.93 2.71 3.93 4.58 0 .51-.47 1.15-1.48 1.15-.89 0-1.73-.47-2.4-1.32V20c.76.57 1.56.84 2.55.84 1.47 0 2.54-1.04 2.54-2.47 0-2.89-3.93-2.87-3.93-4.61 0-.64.6-1.08 1.44-1.08.61 0 1.36.21 2.13.95v-1.48Zm1.72 4.03c0 2.47 1.88 4.66 4.85 4.66s4.92-2.21 4.92-4.66-1.89-4.66-4.89-4.66-4.88 2.14-4.88 4.66m1.35 0c0-2 1.51-3.47 3.53-3.47s3.55 1.47 3.55 3.47-1.51 3.46-3.55 3.46-3.53-1.48-3.53-3.46m17.99-4.55h-1.31v5.29c0 .85-.11 1.52-.57 1.99-.41.41-1.13.73-2.13.73-.79 0-1.44-.25-1.96-.77-.41-.41-.55-.84-.55-1.87v-5.37h-1.31v5.65c0 2.48 1.87 3.56 3.79 3.56 2.71 0 4.04-1.47 4.04-3.69v-5.52Zm8.96 0h-7.6v1.17h3.15v7.92h1.31V12.8h3.15v-1.17Zm9.26 0h-1.31v3.96h-5.09v-3.96h-1.31v9.09h1.31v-3.96h5.09v3.96h1.31v-9.09Zm14.13.63c-1.24-.52-2.19-.75-3.12-.75-2.89 0-4.99 2.03-4.99 4.8 0 1.91 1.49 4.53 4.9 4.53 1.43 0 2.4-.33 3.29-.8v-1.43c-1.03.67-2.15 1.03-3.17 1.03-2.19 0-3.68-1.41-3.68-3.45s1.55-3.48 3.63-3.48c1.05 0 2.01.29 3.13.95v-1.4Zm6.18-.68h-.92l-3.9 9.14h1.33l1.15-2.68h3.86l1.21 2.68h1.33l-4.06-9.14Zm-.48 2 1.47 3.29h-2.83l1.36-3.29Zm5.81-1.95v9.09h1.31v-3.93h1.36c2.11 0 3.07-1.12 3.07-2.55s-.91-2.61-2.89-2.61h-2.84Zm1.31 1.17h1.53c1.19 0 1.55.72 1.55 1.39 0 .91-.63 1.43-1.6 1.43h-1.48v-2.81Zm7.21-1.17h-1.31v9.09h1.31v-9.09Zm9.17 0h-7.6v1.17h3.15v7.92h1.31V12.8h3.14v-1.17Zm4.05-.05h-.92l-3.9 9.14h1.33l1.15-2.68h3.87l1.21 2.68h1.33l-4.07-9.14Zm-.48 2 1.47 3.29h-2.83l1.36-3.29Zm7.17-1.95h-1.31v9.09h5.41v-1.17h-4.11v-7.92Zm18.06 0h-1.21l-3.03 3.73-3.01-3.73h-1.23v9.09h1.3v-7.08h.03l2.8 3.52h.21l2.8-3.52h.03v7.08h1.31v-9.09Zm6.12-.05h-.92l-3.91 9.14h1.33l1.15-2.68h3.87l1.21 2.68h1.33l-4.07-9.14Zm-.48 2 1.47 3.29h-2.82l1.36-3.29Zm14.29-1.95h-1.23v7.04l-6.16-7.04h-1.04v9.09h1.23v-7l6.08 7h1.12v-9.09Zm6.16-.05h-.92l-3.91 9.14h1.33l1.15-2.68h3.87l1.21 2.68h1.33l-4.07-9.14Zm-.48 2 1.47 3.29h-2.83l1.36-3.29Zm13.31 2.66h-3.05v1.17h1.75v1.87c-.63.2-1.27.36-1.97.36-2.16 0-3.68-1.43-3.68-3.45s1.53-3.48 3.51-3.48c1.09 0 2.2.31 3.26.89v-1.32c-1.43-.6-2.17-.77-3.24-.77-2.77 0-4.88 2.04-4.88 4.72s2.05 4.61 4.84 4.61c1.27 0 2.25-.21 3.46-.75v-3.85Zm7.38-4.61h-5.16v9.09h5.28v-1.17h-3.97v-2.83h3.72v-1.17h-3.72V12.8h3.85v-1.17Zm10.29 0h-1.21l-3.02 3.73-3.01-3.73h-1.23v9.09h1.31v-7.08h.03l2.8 3.52h.21l2.8-3.52h.03v7.08h1.31v-9.09Zm7.45 0h-5.16v9.09h5.28v-1.17h-3.97v-2.83h3.72v-1.17h-3.72V12.8h3.85v-1.17Zm10.25 0h-1.23v7.04l-6.16-7.04h-1.04v9.09h1.23v-7l6.08 7h1.12v-9.09Zm9.16 0h-7.6v1.17h3.15v7.92h1.31V12.8h3.15v-1.17Zm-.32 10.66c1.05-.29 1.56-1.16 1.56-1.92s-.37-1.29-.95-1.29c-.45 0-.79.32-.79.76s.27.73.65.75c.12.48-.04 1.16-.48 1.45v.25Zm7.49-10.66h-1.31v9.09h1.31v-9.09Zm10.76 0h-1.23v7.04l-6.16-7.04h-1.04v9.09h1.23v-7l6.08 7h1.12v-9.09Zm10.07.63c-1.24-.52-2.18-.75-3.12-.75-2.89 0-4.99 2.03-4.99 4.8 0 1.91 1.49 4.53 4.9 4.53 1.43 0 2.4-.33 3.29-.8v-1.43c-1.02.67-2.14 1.03-3.17 1.03-2.19 0-3.68-1.41-3.68-3.45s1.55-3.48 3.62-3.48c1.05 0 2.01.29 3.13.95v-1.4Zm2.81 6.98c-.44 0-.8.36-.8.8s.36.8.8.8.8-.36.8-.8-.36-.8-.8-.8M9.31 4.11s.18.54.78.6c.6.06 2.23-.66 4.52-1.99 1.77-1.03 4.1-1.51 4.1-1.51v3.14s-2.11.6-3.08 1.02c-.96.42-3.01 1.93-4.28 2.17-.96.18-2.11-.3-2.11-.3l.06-3.13Z"/>
    <path class="d" d="M10.12 4.02s-.18-.54-.78-.6c-.6-.06-2.23.66-4.52 1.99C3.04 6.44.72 6.92.72 6.92V3.78s2.11-.6 3.07-1.03C4.76 2.33 6.8.82 8.07.58c.97-.18 2.11.3 2.11.3l-.06 3.13Z"/>
  </g>
</svg>
