<?xml version="1.0" encoding="UTF-8"?>
<svg id="logo-mobile" xmlns="http://www.w3.org/2000/svg" width="132" height="34">
  <defs>
    <clipPath id="b">
      <path fill="none" d="M.52.726h131.381v33.232H.52z"/>
    </clipPath>
    <style>
      .c{fill:none}.d{fill:#235b40}.e{clip-path:url(#b)}
    </style>
  </defs>
  <g clip-path="#b" fill="#ffffff">
    <path d="M8.953 11.505H7.75v6.904l-6.04-6.903H.69v8.916h1.203v-6.864l5.961 6.864h1.1v-8.917Zm7.348 0h-5.06v8.917h5.178v-1.15h-3.896v-2.771h3.648V15.35h-3.648v-2.693h3.778v-1.151Zm14.435 0h-1.268l-2.432 6.146-2.484-6.146h-1.216l-2.472 6.146-2.458-6.146h-1.28l3.608 8.996h.248l2.955-7.296 2.93 7.297h.247l3.622-8.996Zm5.557.51c-.627-.418-1.307-.627-1.987-.627-1.635 0-2.706.927-2.706 2.38 0 2.444 3.857 2.653 3.857 4.497 0 .497-.458 1.125-1.452 1.125-.876 0-1.699-.457-2.353-1.295v1.622c.745.563 1.53.825 2.497.825 1.438 0 2.498-1.022 2.498-2.42 0-2.838-3.858-2.812-3.858-4.524 0-.628.588-1.06 1.413-1.06.601 0 1.333.21 2.091.928v-1.45Zm1.687 3.95c0 2.418 1.844 4.576 4.76 4.576 3.02 0 4.824-2.17 4.824-4.576 0-2.485-1.856-4.577-4.798-4.577-2.89 0-4.786 2.104-4.786 4.577m1.321 0c0-1.963 1.477-3.4 3.465-3.4 2.001 0 3.478 1.437 3.478 3.4 0 1.948-1.477 3.4-3.478 3.4-1.988 0-3.465-1.451-3.465-3.4m17.652-4.46h-1.28v5.192c0 .836-.107 1.49-.563 1.948-.406.404-1.112.72-2.093.72-.77 0-1.412-.25-1.922-.76-.406-.405-.536-.824-.536-1.83v-5.27h-1.282v5.545c0 2.432 1.831 3.492 3.714 3.492 2.654 0 3.962-1.44 3.962-3.623v-5.413Zm8.787 0h-7.453v1.151h3.085v7.766h1.282v-7.766h3.086v-1.15Zm9.087 0h-1.282v3.884H68.55v-3.884h-1.28v8.917h1.28V16.54h4.995v3.882h1.282v-8.917Zm13.86.615c-1.216-.51-2.144-.732-3.06-.732-2.837 0-4.89 1.987-4.89 4.707 0 1.87 1.464 4.446 4.812 4.446 1.398 0 2.353-.327 3.23-.786v-1.398c-1.007.653-2.106 1.007-3.113 1.007-2.145 0-3.609-1.386-3.609-3.387 0-1.96 1.517-3.413 3.557-3.413 1.033 0 1.974.288 3.073.928V12.12Zm6.067-.667h-.903l-3.83 8.97h1.306l1.125-2.628h3.792l1.19 2.627h1.307l-3.987-8.969Zm-.47 1.961 1.437 3.23H92.95l1.334-3.23Zm5.7-1.909v8.917h1.281v-3.857h1.334c2.066 0 3.007-1.098 3.007-2.497 0-1.411-.889-2.562-2.837-2.562h-2.786Zm1.281 1.151h1.504c1.163 0 1.516.706 1.516 1.36 0 .888-.614 1.398-1.569 1.398h-1.45v-2.758Zm7.074-1.15h-1.28v8.916h1.28v-8.917Zm8.995 0h-7.453v1.15h3.086v7.766h1.282v-7.766h3.085v-1.15Zm3.976-.053h-.903l-3.83 8.97h1.307l1.124-2.628h3.792l1.19 2.627h1.307l-3.987-8.969Zm-.47 1.961 1.437 3.23h-2.772l1.334-3.23Zm7.033-1.909h-1.28v8.917h5.308v-1.15h-4.028v-7.766ZM8.933 23.497H7.744l-2.97 3.661-2.954-3.66H.617v8.916h1.281v-6.943h.027l2.745 3.452h.21l2.745-3.452h.026v6.943h1.282v-8.917Zm6.002-.053h-.902l-3.832 8.97h1.307l1.125-2.628h3.792l1.19 2.628h1.307l-3.987-8.97Zm-.47 1.962 1.437 3.23H13.13l1.334-3.23Zm14.015-1.909h-1.202v6.904l-6.04-6.904h-1.02v8.917h1.202V25.55l5.962 6.864h1.098v-8.917Zm6.041-.053h-.9l-3.833 8.97h1.307l1.125-2.628h3.793l1.19 2.628h1.306l-3.988-8.97Zm-.47 1.962 1.438 3.23h-2.772l1.334-3.23Zm13.062 2.615h-2.995v1.151h1.713v1.83c-.614.196-1.242.353-1.935.353-2.117 0-3.609-1.399-3.609-3.386 0-1.936 1.504-3.414 3.44-3.414 1.071 0 2.157.302 3.203.877v-1.294c-1.4-.589-2.132-.759-3.177-.759-2.719 0-4.786 2.001-4.786 4.63 0 2.614 2.013 4.523 4.747 4.523 1.241 0 2.21-.208 3.4-.731v-3.78Zm7.243-4.524h-5.06v8.917h5.178v-1.15h-3.896V28.49h3.648v-1.15h-3.648v-2.693h3.778v-1.15Zm10.095 0h-1.189l-2.968 3.661-2.956-3.66h-1.203v8.916h1.282v-6.943h.026l2.745 3.452h.21l2.745-3.452h.026v6.943h1.282v-8.917Zm7.31 0H66.7v8.917h5.177v-1.15h-3.897V28.49h3.648v-1.15h-3.648v-2.693h3.78v-1.15Zm10.054 0h-1.202v6.904l-6.04-6.904H73.55v8.917h1.203V25.55l5.962 6.864h1.1v-8.917Zm8.983 0h-7.453v1.151h3.085v7.766h1.282v-7.766h3.086v-1.15Zm-.314 10.46c1.033-.288 1.53-1.137 1.53-1.882 0-.773-.367-1.269-.928-1.269-.445 0-.772.314-.772.745 0 .433.261.72.641.734.117.47-.04 1.137-.47 1.425v.247Zm7.348-10.46h-1.28v8.917h1.28v-8.917Zm10.552 0h-1.203v6.904l-6.04-6.904h-1.02v8.917h1.203V25.55l5.963 6.864h1.097v-8.917Zm9.885.614c-1.216-.51-2.144-.732-3.059-.732-2.838 0-4.89 1.988-4.89 4.707 0 1.87 1.464 4.446 4.811 4.446 1.4 0 2.353-.326 3.23-.784v-1.399c-1.007.653-2.105 1.006-3.112 1.006-2.145 0-3.609-1.386-3.609-3.386 0-1.962 1.517-3.414 3.556-3.414 1.033 0 1.975.29 3.073.93V24.11Zm2.76 6.852a.787.787 0 0 0-.786.784c0 .432.353.785.785.785a.788.788 0 0 0 .785-.785.787.787 0 0 0-.785-.784M20.113 1.456c-.025.005-2.558.536-4.473 1.645-2.46 1.424-4.223 2.206-4.842 2.143a.917.917 0 0 1-.766-.587l-.19.03-.068 3.464.062.026c.043.018.91.38 1.813.38.177 0 .356-.014.53-.047.903-.172 2.127-.904 3.207-1.55.56-.334 1.088-.65 1.453-.81 1.027-.45 3.298-1.1 3.321-1.106l.071-.02V1.432l-.118.024Z"/>
    <path d="m10.719 4.626.19-.03.068-3.464-.062-.025c-.051-.022-1.28-.538-2.343-.334-.903.173-2.127.904-3.207 1.549-.56.335-1.088.65-1.453.81-1.028.45-3.298 1.1-3.321 1.107l-.071.02V7.85l.118-.024c.025-.005 2.558-.536 4.473-1.645 2.46-1.424 4.23-2.198 4.842-2.143a.917.917 0 0 1 .766.587"/>
  </g>
</svg>
