<svg xmlns="http://www.w3.org/2000/svg" width="77.618" height="30.837">
  <defs>
    <clipPath id="a">
      <path fill="none" d="M0 0h77.618v30.837H0z"/>
    </clipPath>
  </defs>
  <g data-name="Layer 2">
    <g clip-path="url(#a)" fill="#235b40" data-name="Layer 1">
      <path d="M77.155 2.875c-.099.02-10.073 2.11-17.614 6.477-9.691 5.608-16.63 8.687-19.067 8.439a3.61 3.61 0 0 1-3.016-2.311l-.752.118-.264 13.64.244.102a20.692 20.692 0 0 0 7.14 1.497 11.236 11.236 0 0 0 2.086-.185c3.556-.677 8.376-3.56 12.629-6.1a60.51 60.51 0 0 1 5.722-3.19c4.044-1.772 12.986-4.332 13.077-4.36l.28-.078V2.78Z"/>
      <path d="m40.162 15.357.752-.118.264-13.64-.244-.099c-.201-.087-5.04-2.119-9.226-1.315-3.556.681-8.376 3.56-12.629 6.1a60.536 60.536 0 0 1-5.722 3.19C9.31 11.245.371 13.809.28 13.833l-.28.079v14.144l.465-.095c.098-.02 10.073-2.11 17.613-6.477 9.692-5.608 16.662-8.655 19.068-8.439a3.61 3.61 0 0 1 3.016 2.312"/>
    </g>
  </g>
</svg>
