<?xml version="1.0" encoding="UTF-8"?><svg id="a" xmlns="http://www.w3.org/2000/svg" viewBox="0 0 50 50"><defs><style>.b{fill:#fff;}</style></defs><polygon class="b" points="30.04 25 36.11 25 33.07 19.8 30.04 25"/><polygon class="b" points="13.9 25 19.96 25 16.93 19.8 13.9 25"/><path class="b" d="M25,5.51C14.23,5.51,5.51,14.23,5.51,25s8.73,19.49,19.49,19.49,19.49-8.73,19.49-19.49S35.77,5.51,25,5.51Zm12.68,20.07v.58c0,2.54-2.07,4.61-4.61,4.61s-4.61-2.07-4.61-4.61v-.58h0c0-.1,.03-.18,.07-.26,0,0,0-.02,0-.03l3.53-6.05h-6.49v16.14h2.31c.32,0,.58,.26,.58,.58s-.26,.58-.58,.58h-5.77c-.32,0-.58-.26-.58-.58s.26-.58,.58-.58h2.31V19.23h-6.49l3.53,6.05s0,.02,0,.03c.04,.08,.07,.16,.07,.26h0v.58c0,2.54-2.07,4.61-4.61,4.61s-4.61-2.07-4.61-4.61v-.58h0c0-.1,.03-.18,.07-.26,0,0,0-.02,0-.03l4.04-6.92s.02-.02,.03-.03c.1-.15,.27-.26,.47-.26h7.49v-3.46h-1.15c-.32,0-.58-.26-.58-.58s.26-.58,.58-.58h3.46c.32,0,.58,.26,.58,.58s-.26,.58-.58,.58h-1.15v3.46h7.5c.2,0,.36,.11,.47,.26,0,.01,.02,.02,.03,.03l4.04,6.92s0,.02,0,.03c.04,.08,.07,.16,.07,.26h0Z"/></svg>